HIERARCHY
ROOT Hips
{
	OFFSET 0.00000 0.00000 0.00000
	CHANNELS 6 Xposition Yposition Zposition Zrotation Yrotation Xrotation 
	JOINT LHipJoint
	{
		OFFSET 0 0 0
		CHANNELS 3 Zrotation Yrotation Xrotation
		JOINT LeftUpLeg
		{
			OFFSET 1.58895 -1.83665 0.71753
			CHANNELS 3 Zrotation Yrotation Xrotation
			JOINT LeftLeg
			{
				OFFSET 2.50528 -6.88321 0.00000
				CHANNELS 3 Zrotation Yrotation Xrotation
				JOINT LeftFoot
				{
					OFFSET 2.63244 -7.23257 0.00000
					CHANNELS 3 Zrotation Yrotation Xrotation
					JOINT LeftToeBase
					{
						OFFSET 0.23691 -0.65090 1.72750
						CHANNELS 3 Zrotation Yrotation Xrotation
						End Site
						{
							OFFSET 0.00000 -0.00000 0.92561
						}
					}
				}
			}
		}
	}
	JOINT RHipJoint
	{
		OFFSET 0 0 0
		CHANNELS 3 Zrotation Yrotation Xrotation
		JOINT RightUpLeg
		{
			OFFSET -1.51435 -1.83665 0.71753
			CHANNELS 3 Zrotation Yrotation Xrotation
			JOINT RightLeg
			{
				OFFSET -2.54551 -6.99375 0.00000
				CHANNELS 3 Zrotation Yrotation Xrotation
				JOINT RightFoot
				{
					OFFSET -2.66027 -7.30903 0.00000
					CHANNELS 3 Zrotation Yrotation Xrotation
					JOINT RightToeBase
					{
						OFFSET -0.22981 -0.63138 2.03959
						CHANNELS 3 Zrotation Yrotation Xrotation
						End Site
						{
							OFFSET -0.00000 -0.00000 1.07060
						}
					}
				}
			}
		}
	}
	JOINT LowerBack
	{
		OFFSET 0 0 0
		CHANNELS 3 Zrotation Yrotation Xrotation
		JOINT Spine
		{
			OFFSET -0.02651 1.86275 -0.11152
			CHANNELS 3 Zrotation Yrotation Xrotation
			JOINT Spine1
			{
				OFFSET 0.01019 1.86224 0.04087
				CHANNELS 3 Zrotation Yrotation Xrotation
				JOINT Neck
				{
					OFFSET 0 0 0
					CHANNELS 3 Zrotation Yrotation Xrotation
					JOINT Neck1
					{
						OFFSET -0.01926 1.80512 0.08867
						CHANNELS 3 Zrotation Yrotation Xrotation
						JOINT Head
						{
							OFFSET 0.05516 1.76451 -0.38475
							CHANNELS 3 Zrotation Yrotation Xrotation
							End Site
							{
								OFFSET 0.01592 1.82587 -0.14001
							}
						}
					}
				}
				JOINT LeftShoulder
				{
					OFFSET 0 0 0
					CHANNELS 3 Zrotation Yrotation Xrotation
					JOINT LeftArm
					{
						OFFSET 3.47116 1.51376 0.14491
						CHANNELS 3 Zrotation Yrotation Xrotation
						JOINT LeftForeArm
						{
							OFFSET 4.78095 -0.00000 0.00000
							CHANNELS 3 Zrotation Yrotation Xrotation
							JOINT LeftHand
							{
								OFFSET 3.58615 -0.00000 -0.00000
								CHANNELS 3 Zrotation Yrotation Xrotation
								JOINT LeftFingerBase
								{
									OFFSET 0 0 0
									CHANNELS 3 Zrotation Yrotation Xrotation
									JOINT LeftHandIndex1
									{
										OFFSET 0.65981 -0.00000 0.00000
										CHANNELS 3 Zrotation Yrotation Xrotation
										End Site
										{
											OFFSET 0.53196 -0.00000 0.00000
										}
									}
								}
								JOINT LThumb
								{
									OFFSET 0 0 0
									CHANNELS 3 Zrotation Yrotation Xrotation
									End Site
									{
										OFFSET 0.54008 -0.00000 0.54008
									}
								}
							}
						}
					}
				}
				JOINT RightShoulder
				{
					OFFSET 0 0 0
					CHANNELS 3 Zrotation Yrotation Xrotation
					JOINT RightArm
					{
						OFFSET -3.31725 1.61216 0.35156
						CHANNELS 3 Zrotation Yrotation Xrotation
						JOINT RightForeArm
						{
							OFFSET -4.48913 -0.00000 0.00000
							CHANNELS 3 Zrotation Yrotation Xrotation
							JOINT RightHand
							{
								OFFSET -3.70510 -0.00000 0.00000
								CHANNELS 3 Zrotation Yrotation Xrotation
								JOINT RightFingerBase
								{
									OFFSET 0 0 0
									CHANNELS 3 Zrotation Yrotation Xrotation
									JOINT RightHandIndex1
									{
										OFFSET -0.44914 -0.00000 0.00000
										CHANNELS 3 Zrotation Yrotation Xrotation
										End Site
										{
											OFFSET -0.36211 -0.00000 0.00000
										}
									}
								}
								JOINT RThumb
								{
									OFFSET 0 0 0
									CHANNELS 3 Zrotation Yrotation Xrotation
									End Site
									{
										OFFSET -0.36763 -0.00000 0.36763
									}
								}
							}
						}
					}
				}
			}
		}
	}
}
MOTION
Frames: 9
Frame Time: .0083333
-0.7146 18.7959 5.2603 -1.6443 -0.9807 5.8905 0.0000 0.0000 0.0000 -11.7690 -9.9853 -7.4251 1.2879 7.1910 20.2825 1.3720 7.6486 -26.0834 7.9401 -16.0750 -52.3468 0.0000 0.0000 0.0000 0.0000 0.0000 0.0000 0.0000 0.0000 0.0000 -0.0000 -0.0000 0.0000 -0.0000 -0.0000 0.0000 -0.5308 0.7847 10.3285 1.9176 1.0339 3.8642 2.1635 0.5006 -1.8153 -4.0826 -3.5880 -15.0705 2.8405 -4.8885 29.3675 1.0461 -2.2539 12.3835 0.0000 0.0000 0.0000 -69.2122 -36.3544 64.1109 57.9438 -55.7367 -32.6359 -0.0000 -0.0000 1.4863 23.3658 -36.7799 -14.5031 -7.1250 0.0000 -0.0000 -5.5527 -9.0138 6.3819 0.0000 0.0000 0.0000 52.4168 34.2986 55.1155 -54.9823 54.8174 -30.2015 0.0000 0.0000 27.1770 -33.2478 -19.9277 12.5954 7.1250 -0.0000 -0.0000 -5.1053 -53.3451 1.0500
-0.7192 18.7991 5.2413 -1.6481 -0.8852 5.9877 0.0000 0.0000 0.0000 -11.7008 -10.0129 -7.6583 1.2918 7.2015 20.3136 1.3527 7.6226 -25.9216 7.9483 -16.0811 -52.3763 0.0000 0.0000 0.0000 0.0000 0.0000 0.0000 0.0000 0.0000 0.0000 -0.0000 -0.0000 0.0000 -0.0000 -0.0000 0.0000 -0.4284 0.7450 10.4299 1.9392 0.9900 4.0279 2.1335 0.4774 -1.6978 -4.0593 -3.5841 -15.1584 2.8623 -4.8869 29.2133 1.0489 -2.2471 12.3395 0.0000 0.0000 0.0000 -71.0119 -36.6455 64.1795 55.8686 -55.1046 -30.9272 -0.0000 -0.0000 2.7053 26.6057 -38.2789 -17.2388 -7.1250 0.0000 -0.0000 -4.1632 -11.3558 4.9131 0.0000 0.0000 0.0000 54.4789 34.8854 54.6321 -53.0848 54.1663 -28.6568 0.0000 0.0000 27.7939 -34.6911 -20.5172 13.6370 7.1250 -0.0000 -0.0000 -6.6175 -54.3307 1.5224
-0.7223 18.8018 5.2258 -1.5931 -0.8507 6.0948 0.0000 0.0000 0.0000 -11.7111 -9.9760 -7.8966 1.2958 7.2122 20.3456 1.3357 7.6263 -25.7969 7.9787 -16.1036 -52.4860 0.0000 0.0000 0.0000 0.0000 0.0000 0.0000 0.0000 0.0000 0.0000 -0.0000 -0.0000 0.0000 -0.0000 -0.0000 0.0000 -0.3512 0.7110 10.5350 1.9313 0.9507 4.1682 2.0862 0.4570 -1.6068 -4.0620 -3.5681 -15.2508 2.8563 -4.8536 29.1233 1.0505 -2.2325 12.3210 0.0000 0.0000 0.0000 -72.8378 -36.8451 64.1939 53.9470 -54.4684 -29.3572 -0.0000 -0.0000 3.9603 29.3604 -39.6080 -19.7304 -7.1250 0.0000 -0.0000 -3.0684 -13.4806 3.7038 0.0000 0.0000 0.0000 56.5559 35.3837 54.2250 -51.5102 53.5867 -27.3849 0.0000 0.0000 28.4315 -35.8567 -20.9358 14.4801 7.1250 -0.0000 -0.0000 -7.8837 -55.0758 1.9596
-0.7248 18.8035 5.2116 -1.5423 -0.9397 6.2081 0.0000 0.0000 0.0000 -11.7312 -9.9348 -8.0952 1.2993 7.2217 20.3738 1.3348 7.6283 -25.7912 7.9700 -16.0971 -52.4544 0.0000 0.0000 0.0000 0.0000 0.0000 0.0000 0.0000 0.0000 0.0000 -0.0000 -0.0000 0.0000 -0.0000 -0.0000 0.0000 -0.2769 0.6993 10.6696 1.9040 0.9406 4.2789 2.0168 0.4517 -1.5634 -4.0849 -3.5490 -15.3342 2.8713 -4.8194 29.0898 1.0640 -2.2169 12.3245 0.0000 0.0000 0.0000 -74.5449 -36.8965 64.0739 52.4985 -53.9548 -28.1822 -0.0000 -0.0000 5.0301 31.0943 -40.4155 -21.3559 -7.1250 0.0000 -0.0000 -2.4091 -14.8253 2.9475 0.0000 0.0000 0.0000 58.6566 35.7558 53.8863 -50.2912 53.1123 -26.4068 0.0000 0.0000 29.4696 -36.9042 -21.4380 15.3476 7.1250 -0.0000 -0.0000 -9.0485 -55.9041 2.4349
-0.7275 18.8053 5.1960 -1.5038 -1.0377 6.3503 0.0000 0.0000 0.0000 -11.7383 -9.9606 -8.3069 1.3028 7.2308 20.4010 1.3288 7.6670 -25.7721 7.9464 -16.0797 -52.3692 0.0000 0.0000 0.0000 0.0000 0.0000 0.0000 0.0000 0.0000 0.0000 -0.0000 -0.0000 0.0000 -0.0000 -0.0000 0.0000 -0.2230 0.6890 10.8305 1.8978 0.9315 4.3734 1.9801 0.4469 -1.5519 -4.1692 -3.5269 -15.4273 2.9314 -4.7765 29.0468 1.1062 -2.1984 12.3291 -0.0000 -0.0000 0.0000 -76.2016 -36.9065 63.8939 51.2944 -53.5044 -27.2113 -0.0000 -0.0000 5.9305 32.4759 -40.8454 -22.6006 -7.1250 0.0000 -0.0000 -1.8439 -15.7024 2.2751 -0.0000 -0.0000 0.0000 60.6551 36.0433 53.8379 -49.2973 52.7081 -25.6140 0.0000 0.0000 30.0390 -38.4351 -22.1639 16.6671 7.1250 -0.0000 -0.0000 -10.8239 -57.1276 3.2417
-0.7295 18.8086 5.1821 -1.4815 -1.0892 6.5169 0.0000 0.0000 0.0000 -11.7271 -10.0947 -8.5143 1.3060 7.2395 20.4269 1.3168 7.7907 -25.7668 7.9449 -16.0786 -52.3640 0.0000 0.0000 0.0000 0.0000 0.0000 0.0000 0.0000 0.0000 0.0000 -0.0000 -0.0000 0.0000 -0.0000 -0.0000 0.0000 -0.1578 0.6854 10.9817 1.9170 0.9335 4.4488 1.9623 0.4478 -1.5553 -4.3659 -3.5374 -15.4952 3.0902 -4.7776 28.9640 1.1984 -2.1992 12.3206 -0.0000 -0.0000 0.0000 -77.9558 -37.0000 63.8472 49.9677 -52.9825 -26.1483 -0.0000 -0.0000 6.6935 33.9311 -41.3266 -23.9535 -7.1250 0.0000 -0.0000 -1.2704 -16.6739 1.5818 -0.0000 -0.0000 0.0000 62.4483 36.2624 54.2884 -48.3868 52.3238 -24.8915 0.0000 0.0000 28.9366 -40.9574 -23.1488 18.8408 7.1250 -0.0000 -0.0000 -13.9623 -58.9478 4.8185
-0.7330 18.8130 5.1700 -1.4910 -1.2268 6.6776 0.0000 0.0000 0.0000 -11.6827 -10.2044 -8.6835 1.3074 7.2430 20.4374 1.3167 7.9377 -25.8680 7.9402 -16.0751 -52.3469 0.0000 0.0000 0.0000 0.0000 0.0000 0.0000 0.0000 0.0000 0.0000 -0.0000 -0.0000 0.0000 -0.0000 -0.0000 0.0000 -0.1027 0.7384 11.0604 1.9354 1.0081 4.5512 1.9412 0.4843 -1.4939 -4.6267 -3.6031 -15.5998 3.3053 -4.8571 28.9512 1.3107 -2.2336 12.3555 -0.0000 -0.0000 0.0000 -79.6632 -37.2457 63.9484 48.5349 -52.3872 -25.0088 -0.0000 -0.0000 7.3718 35.5721 -41.8661 -25.5158 -7.1250 0.0000 -0.0000 -0.6407 -17.7905 0.8058 -0.0000 -0.0000 0.0000 64.1965 36.6009 54.1493 -47.3718 51.8789 -24.0906 0.0000 0.0000 28.9856 -42.2255 -23.6341 19.9931 7.1250 -0.0000 -0.0000 -15.6525 -59.8742 5.7674
-0.7375 18.8161 5.1597 -1.4899 -1.3531 6.8065 0.0000 0.0000 0.0000 -11.6606 -10.1848 -8.8678 1.3066 7.2411 20.4317 1.2895 8.1766 -25.8308 7.9635 -16.0923 -52.4310 0.0000 0.0000 0.0000 0.0000 0.0000 0.0000 0.0000 0.0000 0.0000 -0.0000 -0.0000 0.0000 -0.0000 -0.0000 0.0000 -0.0445 0.7978 11.1025 1.9339 1.0904 4.6699 1.8972 0.5247 -1.3952 -4.8577 -3.6546 -15.7448 3.4783 -4.9133 29.0520 1.4056 -2.2587 12.4416 -0.0000 -0.0000 0.0000 -81.2396 -37.5263 64.0732 47.1781 -51.7920 -23.9383 -0.0000 -0.0000 8.0850 37.3120 -42.2856 -27.1478 -7.1250 0.0000 -0.0000 0.0564 -18.8501 -0.0716 -0.0000 -0.0000 0.0000 65.8529 36.9383 53.8839 -46.4718 51.4695 -23.3845 0.0000 0.0000 29.2482 -43.0450 -23.9730 20.7809 7.1250 -0.0000 -0.0000 -16.7951 -60.5106 6.4582
-0.7398 18.8172 5.1513 -1.4351 -1.2403 6.8624 0.0000 0.0000 0.0000 -11.7024 -10.1447 -9.0478 1.3043 7.2349 20.4132 1.2204 8.4660 -25.5135 7.9738 -16.1000 -52.4684 0.0000 0.0000 0.0000 0.0000 0.0000 0.0000 0.0000 0.0000 0.0000 -0.0000 -0.0000 0.0000 -0.0000 -0.0000 0.0000 0.0400 0.7687 11.2419 1.9397 1.0603 4.7743 1.8586 0.5099 -1.3601 -4.9623 -3.6583 -15.8048 3.4935 -4.8879 29.0419 1.4324 -2.2558 12.4526 -0.0000 -0.0000 0.0000 -82.8779 -37.6982 64.1171 45.9795 -51.2394 -23.0000 -0.0000 -0.0000 8.8569 39.0711 -42.7466 -28.8566 -7.1250 0.0000 -0.0000 0.7315 -19.9878 -0.9375 -0.0000 -0.0000 0.0000 67.2947 37.2668 53.3567 -45.7317 51.1220 -22.8070 0.0000 0.0000 30.4677 -43.2626 -24.1430 21.0534 7.1250 -0.0000 -0.0000 -17.1165 -60.7753 6.6942
